<svg width="20" height="20" viewBox="0 0 20 20" fill="none" xmlns="http://www.w3.org/2000/svg">
<path d="M3.55078 9.18329V13.325C3.55078 14.8416 3.55078 14.8416 4.98411 15.8083L8.92578 18.0833C9.51745 18.425 10.4841 18.425 11.0758 18.0833L15.0174 15.8083C16.4508 14.8416 16.4508 14.8416 16.4508 13.325V9.18329C16.4508 7.66662 16.4508 7.66662 15.0174 6.69995L11.0758 4.42495C10.4841 4.08328 9.51745 4.08328 8.92578 4.42495L4.98411 6.69995C3.55078 7.66662 3.55078 7.66662 3.55078 9.18329Z" stroke="white" stroke-width="1.5" stroke-linecap="round" stroke-linejoin="round"/>
<path d="M14.5827 6.35842V4.16675C14.5827 2.50008 13.7493 1.66675 12.0827 1.66675H7.91602C6.24935 1.66675 5.41602 2.50008 5.41602 4.16675V6.30008" stroke="white" stroke-width="1.5" stroke-linecap="round" stroke-linejoin="round"/>
<path d="M10.5245 9.1583L10.9995 9.89997C11.0745 10.0166 11.2412 10.1333 11.3662 10.1666L12.2162 10.3833C12.7412 10.5166 12.8828 10.9666 12.5412 11.3833L11.9828 12.0583C11.8995 12.1666 11.8328 12.3583 11.8412 12.4916L11.8912 13.3666C11.9245 13.9083 11.5412 14.1833 11.0412 13.9833L10.2245 13.6583C10.0995 13.6083 9.89116 13.6083 9.76616 13.6583L8.94949 13.9833C8.44949 14.1833 8.06616 13.9 8.09949 13.3666L8.14949 12.4916C8.15782 12.3583 8.09116 12.1583 8.00782 12.0583L7.44949 11.3833C7.10782 10.9666 7.24949 10.5166 7.77449 10.3833L8.62449 10.1666C8.75783 10.1333 8.92449 10.0083 8.99116 9.89997L9.46616 9.1583C9.76616 8.7083 10.2328 8.7083 10.5245 9.1583Z" stroke="white" stroke-width="1.5" stroke-linecap="round" stroke-linejoin="round"/>
</svg>
