<svg width="20" height="20" viewBox="0 0 20 20" fill="none" xmlns="http://www.w3.org/2000/svg">
<path d="M7.22656 11.9415C7.22656 13.0165 8.05156 13.8831 9.07656 13.8831H11.1682C12.0599 13.8831 12.7849 13.1248 12.7849 12.1915C12.7849 11.1748 12.3432 10.8165 11.6849 10.5831L8.32656 9.41646C7.66823 9.18312 7.22656 8.82479 7.22656 7.80812C7.22656 6.87479 7.95156 6.11646 8.84323 6.11646H10.9349C11.9599 6.11646 12.7849 6.98312 12.7849 8.05812" stroke="#828383" stroke-width="1.5" stroke-linecap="round" stroke-linejoin="round"/>
<path d="M10 5V15" stroke="#828383" stroke-width="1.5" stroke-linecap="round" stroke-linejoin="round"/>
<path d="M9.99935 18.3334C14.6017 18.3334 18.3327 14.6025 18.3327 10.0001C18.3327 5.39771 14.6017 1.66675 9.99935 1.66675C5.39698 1.66675 1.66602 5.39771 1.66602 10.0001C1.66602 14.6025 5.39698 18.3334 9.99935 18.3334Z" stroke="#828383" stroke-width="1.5" stroke-linecap="round" stroke-linejoin="round"/>
</svg>
