<svg width="153" height="30" viewBox="0 0 153 30" fill="none" xmlns="http://www.w3.org/2000/svg">
<path d="M60.14 18.96C60.14 14.04 52.98 15.6 52.98 12.8C52.98 11.66 53.8 11.12 54.9 11.16C56.1 11.18 56.84 11.9 56.9 12.82H59.98C59.8 10.3 57.84 8.84 54.98 8.84C52.1 8.84 50.06 10.36 50.06 12.88C50.04 17.94 57.24 16.12 57.24 19.14C57.24 20.14 56.46 20.84 55.14 20.84C53.84 20.84 53.1 20.1 53.02 18.98H50.02C50.06 21.62 52.3 23.14 55.2 23.14C58.38 23.14 60.14 21.16 60.14 18.96ZM61.7475 17.46C61.7475 20.94 64.0275 23.18 67.2275 23.18C69.9875 23.18 71.8475 21.62 72.4475 19.26H69.4275C69.0875 20.26 68.3675 20.78 67.2075 20.78C65.6475 20.78 64.6075 19.62 64.6075 17.46C64.6075 15.3 65.6475 14.12 67.2075 14.12C68.3675 14.12 69.1075 14.72 69.4275 15.66H72.4475C71.8475 13.18 69.9875 11.74 67.2275 11.74C64.0275 11.74 61.7475 13.98 61.7475 17.46ZM77.1987 17.48C77.1987 15.34 78.1987 14.7 79.8587 14.7H80.5987V11.76C79.0587 11.76 77.8987 12.5 77.1987 13.64V11.92H74.3987V23H77.1987V17.48ZM87.1047 19.66L84.2447 11.92H81.1047L85.5447 22.72L83.1447 28.24H86.1247L92.9847 11.92H90.0047L87.1047 19.66ZM97.1941 13.54V8.2H94.3941V23H97.1941V21.42C97.8741 22.38 99.1141 23.18 100.854 23.18C103.694 23.18 105.914 20.88 105.914 17.42C105.914 13.96 103.694 11.74 100.854 11.74C99.1741 11.74 97.8741 12.52 97.1941 13.54ZM103.054 17.42C103.054 19.52 101.634 20.72 100.114 20.72C98.6141 20.72 97.1941 19.56 97.1941 17.46C97.1941 15.36 98.6141 14.2 100.114 14.2C101.634 14.2 103.054 15.32 103.054 17.42ZM112.609 14.04C114.049 14.04 115.209 14.96 115.249 16.42H109.989C110.209 14.9 111.269 14.04 112.609 14.04ZM117.869 19.52H114.849C114.489 20.26 113.829 20.86 112.629 20.86C111.229 20.86 110.109 19.94 109.969 18.3H118.069C118.129 17.94 118.149 17.58 118.149 17.22C118.149 13.92 115.889 11.74 112.689 11.74C109.409 11.74 107.129 13.96 107.129 17.46C107.129 20.94 109.469 23.18 112.689 23.18C115.429 23.18 117.269 21.56 117.869 19.52Z" fill="#1976D3"/>
<path d="M120.133 17.04H128.613V14.68H120.133V17.04ZM131.653 23H134.453V11.92H131.653V23ZM133.073 10.6C134.053 10.6 134.793 9.88 134.793 8.96C134.793 8.04 134.053 7.32 133.073 7.32C132.073 7.32 131.353 8.04 131.353 8.96C131.353 9.88 132.073 10.6 133.073 10.6ZM136.379 11.3H140.099V23H142.899V11.3H146.619V9.04H136.379V11.3Z" fill="#012345"/>
<path fill-rule="evenodd" clip-rule="evenodd" d="M3.83859 0.379378C3.84862 0.629678 3.98878 1.20428 4.15044 1.65651C4.40712 2.37549 4.60388 2.52035 5.71706 2.80886C7.56878 3.28866 9.71014 4.52565 11.1442 5.94328L12.3981 7.18293L12.038 6.30604C10.8508 3.41441 7.41358 0.515048 4.63038 0.0577369C3.94628 -0.0547165 3.82331 -0.00465664 3.83859 0.379378ZM34.0602 0.490864C31.4108 1.57961 29.0994 3.82626 28.0779 6.30604L27.7166 7.18293L29.0079 5.90604C30.4072 4.5225 33.1703 2.97621 34.6803 2.73147C35.6555 2.57355 35.825 2.34985 36.1634 0.773812C36.3164 0.0611226 36.2804 -0.0109444 35.7758 0.00114741C35.47 0.00840247 34.698 0.228715 34.0602 0.490864ZM0.00167144 3.31018C0.00238777 3.81054 0.216572 5.47146 0.477556 7.00107C0.73854 8.53068 0.952724 9.86368 0.95344 9.96356C0.954395 10.0634 1.17001 10.1449 1.43267 10.1449C1.87775 10.1449 1.91022 9.98363 1.91022 7.76551V5.3861L3.40258 5.60931C5.99571 5.99722 9.8749 7.49006 12.3797 9.06417C13.2486 9.61024 13.3778 9.64143 13.1739 9.25546C12.7885 8.52585 10.6784 6.62284 9.17432 5.64849C6.63134 4.00086 3.9396 2.97863 1.01481 2.54937L0 2.4004L0.00167144 3.31018ZM38.2334 2.67875C34.8948 3.24053 31.0349 5.20327 28.3811 7.68885C27.4802 8.53262 26.7431 9.31084 26.7431 9.41846C26.7431 9.52608 27.5667 9.1389 28.5731 8.55801C30.8573 7.23977 33.8993 6.11257 36.2689 5.70653L38.0851 5.39529L38.1531 7.77011C38.2154 9.94615 38.2603 10.1449 38.6904 10.1449C38.9485 10.1449 39.1596 10.0929 39.1596 10.0293C39.1596 9.8424 40.1147 3.79869 40.2594 3.07125C40.4084 2.32132 40.3855 2.31672 38.2334 2.67875ZM7.68101 11.2581C3.9396 13.1466 3.29657 18.361 6.4661 21.109C7.57881 22.0735 8.79204 22.4805 10.5339 22.4732C12.2192 22.4662 13.5201 21.843 14.7118 20.472C16.3291 18.6111 16.6762 16.31 15.67 14.1217C14.246 11.0245 10.6781 9.74566 7.68101 11.2581ZM27.3489 11.1258C25.0984 12.2629 24.0113 14.0307 24.0113 16.5536C24.0113 18.5439 24.5457 19.7843 25.9356 21.0203C27.1533 22.1032 28.1474 22.4785 29.7969 22.4785C34.6705 22.4785 37.442 16.8733 34.4986 12.9691C32.8737 10.8136 29.6247 9.97613 27.3489 11.1258ZM12.1056 12.8283C13.6294 13.5754 14.4145 15.037 14.283 16.881C14.1633 18.5543 13.5089 19.6142 12.1672 20.3076C8.68388 22.1071 4.88922 18.3054 6.66047 14.7906C7.20918 13.7016 7.75049 13.1838 8.84194 12.7043C9.98903 12.2005 10.8952 12.2349 12.1056 12.8283ZM31.5165 12.7701C34.0015 14.12 34.6536 17.2133 32.8835 19.2549C30.3745 22.1492 26.1049 20.7047 25.8308 16.8689C25.7477 15.7047 25.8308 15.3132 26.3506 14.4148C27.4299 12.5495 29.7503 11.8107 31.5165 12.7701ZM9.81664 13.8849C10.8665 15.6873 8.97614 17.6571 7.14758 16.666C6.75359 16.4525 6.68602 16.4967 6.68674 16.9683C6.68793 17.771 7.51768 19.0239 8.41477 19.5777C10.7285 21.0067 13.8157 19.0152 13.5373 16.2733C13.3539 14.4685 11.8221 13.047 10.0604 13.047H9.32834L9.81664 13.8849ZM28.5091 13.3925C27.5139 13.8315 26.7009 15.0467 26.5822 16.2733C26.401 18.1451 28.1116 20.0607 29.9628 20.0597C31.5418 20.059 33.4289 18.3891 33.4289 16.993C33.4289 16.4972 33.3637 16.451 32.9671 16.666C31.6011 17.4065 29.9905 16.4327 29.9905 14.866C29.9905 14.3993 30.1837 13.8223 30.4334 13.5427C30.8718 13.052 30.868 13.047 30.0633 13.0564C29.6161 13.0617 28.9167 13.2129 28.5091 13.3925ZM1.9883 17.6544C2.11724 20.2715 2.88611 22.0205 4.76935 23.982C6.23425 25.5075 6.23425 25.7085 4.76959 24.7721C3.18482 23.7588 1.9193 21.7347 1.29513 19.2138L0.995704 18.0046L0.975408 19.1279C0.948426 20.6258 1.7352 23.1262 2.68864 24.5709C4.64375 27.5339 8.9365 28.7517 12.0268 27.2204C12.7087 26.8826 13.564 26.2918 13.9274 25.9078L14.5879 25.2093L12.7261 25.0788C10.1879 24.901 8.38182 24.3221 6.628 23.1245C4.81639 21.8873 3.7395 20.3963 2.68959 17.6713L1.88635 15.5862L1.9883 17.6544ZM37.7603 16.6745C36.144 22.0931 33.0232 24.6376 27.4726 25.0628L25.4563 25.2173L26.3981 26.0463C27.6519 27.1496 28.465 27.5561 29.8687 27.7808C32.1763 28.1503 34.6304 27.4175 36.4222 25.8241C37.8764 24.531 39.1765 21.3632 39.1355 19.2138L39.1168 18.2464L38.8086 19.3799C38.1247 21.8945 36.9112 23.7709 35.304 24.7985C33.9566 25.6599 33.9463 25.5201 35.2539 24.1109C35.9017 23.4125 36.6598 22.4604 36.9387 21.9949C37.719 20.6923 38.2377 18.5635 38.1572 16.9927L38.0851 15.5862L37.7603 16.6745ZM18.0609 17.8232C17.996 18.0561 17.6555 19.2933 17.3047 20.5731L16.6667 22.8998L17.8723 24.4149C18.5351 25.2483 19.2656 26.4594 19.4953 27.1063C19.879 28.1868 20.2961 28.6603 20.2961 28.0154C20.2961 27.4717 21.554 25.2236 22.4903 24.0945L23.4561 22.9291L22.814 20.5879C22.4611 19.3001 22.1187 18.0561 22.0538 17.8232C21.9771 17.5497 21.6994 17.4 21.2677 17.4C20.6543 17.4 20.5874 17.4914 20.448 18.5221C20.2157 20.2391 20.2658 21.4686 20.5898 21.9941C20.8331 22.3886 20.8126 22.5429 20.4704 22.8892C20.0788 23.286 20.0359 23.286 19.6443 22.8892C19.2916 22.5322 19.2768 22.3963 19.544 21.9632C19.7753 21.5879 19.8133 20.9274 19.6901 19.4278C19.5237 17.4056 19.5215 17.4 18.8513 17.4C18.4155 17.4 18.1378 17.5487 18.0609 17.8232ZM13.6774 27.5404C11.41 29.0511 8.69796 29.4153 6.03081 28.5667C4.17193 27.9755 4.34528 28.3571 6.35483 29.2799C8.50431 30.2671 10.1581 30.2415 12.1858 29.1895C13.0191 28.7573 13.963 28.0497 14.2832 27.6175C14.9757 26.6828 14.9664 26.6816 13.6774 27.5404ZM25.5189 27.2548C26.2422 28.6137 28.8429 29.9694 30.7336 29.973C32.0717 29.9757 34.1331 29.2949 35.1003 28.5312C35.6825 28.0715 35.6591 28.072 34.1452 28.5503C31.3983 29.4187 28.7985 29.0869 26.4363 27.5668C25.6225 27.0432 25.3584 26.9532 25.5189 27.2548Z" fill="#1976D3"/>
</svg>
