<svg width="194" height="40" viewBox="0 0 194 40" fill="none" xmlns="http://www.w3.org/2000/svg">
<path fill-rule="evenodd" clip-rule="evenodd" d="M5.22247 0.505837C5.23611 0.83957 5.42681 1.6057 5.64674 2.20868C5.99596 3.16732 6.26365 3.36046 7.77815 3.74514C10.2974 4.38488 13.2108 6.03419 15.1619 7.92438L16.8678 9.57724L16.3779 8.40805C14.7627 4.55255 10.0863 0.68673 6.29971 0.0769826C5.36898 -0.0729554 5.20168 -0.00620884 5.22247 0.505837ZM46.3395 0.654485C42.7348 2.10614 39.5902 5.10168 38.2004 8.40805L37.7089 9.57724L39.4658 7.87472C41.3694 6.03 45.1287 3.96828 47.1832 3.64196C48.5099 3.4314 48.7406 3.13314 49.2009 1.03175C49.4091 0.0814967 49.3601 -0.0145925 48.6736 0.00152988C48.2575 0.0112033 47.2072 0.304953 46.3395 0.654485ZM0.00227402 4.41358C0.0032486 5.08072 0.294649 7.29529 0.649722 9.33476C1.0048 11.3742 1.2962 13.1516 1.29717 13.2847C1.29847 13.4179 1.59182 13.5266 1.94917 13.5266C2.55471 13.5266 2.59889 13.3115 2.59889 10.354V7.18146L4.62927 7.47908C8.15726 7.99629 13.435 9.98675 16.8428 12.0856C18.0249 12.8136 18.2007 12.8552 17.9232 12.3406C17.3989 11.3678 14.5281 8.83046 12.4818 7.53132C9.02204 5.33449 5.35988 3.9715 1.38066 3.39916L0 3.20053L0.00227402 4.41358ZM52.0171 3.57167C47.4749 4.32071 42.2235 6.93769 38.613 10.2518C37.3873 11.3768 36.3845 12.4145 36.3845 12.5579C36.3845 12.7014 37.5049 12.1852 38.8742 11.4107C41.9818 9.65302 46.1205 8.15009 49.3445 7.60871L51.8154 7.19372L51.9079 10.3601C51.9927 13.2615 52.0538 13.5266 52.6389 13.5266C52.9901 13.5266 53.2772 13.4573 53.2772 13.3724C53.2772 13.1232 54.5767 5.06492 54.7735 4.095C54.9762 3.09509 54.9451 3.08896 52.0171 3.57167ZM10.4501 15.0108C5.35989 17.5288 4.48503 24.4814 8.79724 28.1454C10.3111 29.4313 11.9617 29.974 14.3316 29.9643C16.6244 29.9549 18.3943 29.124 20.0157 27.296C22.216 24.8148 22.6883 21.7467 21.3193 18.8289C19.3819 14.6993 14.5278 12.9942 10.4501 15.0108ZM37.2086 14.8344C34.1468 16.3506 32.6677 18.7077 32.6677 22.0714C32.6677 24.7252 33.3948 26.379 35.2858 28.027C36.9426 29.4709 38.295 29.9714 40.5391 29.9714C47.1698 29.9714 50.9405 22.4977 46.9359 17.2921C44.7253 14.4181 40.3049 13.3015 37.2086 14.8344ZM16.4698 17.1045C18.5431 18.1005 19.6112 20.0494 19.4322 22.508C19.2695 24.739 18.379 26.1523 16.5536 27.0768C11.8146 29.4761 6.65186 24.4072 9.06168 19.7208C9.80821 18.2688 10.5447 17.5784 12.0296 16.939C13.5902 16.2674 14.8231 16.3132 16.4698 17.1045ZM42.8787 17.0267C46.2596 18.8266 47.1468 22.9511 44.7386 25.6732C41.3249 29.5322 35.5161 27.6062 35.1432 22.4919C35.0301 20.9396 35.1432 20.4176 35.8504 19.2197C37.3188 16.7327 40.4757 15.7476 42.8787 17.0267ZM13.3557 18.5132C14.7841 20.9164 12.2122 23.5428 9.72439 22.2214C9.18837 21.9366 9.09644 21.9957 9.09741 22.6244C9.09904 23.6946 10.2279 25.3652 11.4484 26.1036C14.5963 28.009 18.7965 25.3536 18.4177 21.6977C18.1682 19.2913 16.0842 17.3959 13.6874 17.3959H12.6914L13.3557 18.5132ZM38.7871 17.8567C37.4331 18.442 36.327 20.0623 36.1655 21.6977C35.9189 24.1935 38.2462 26.7476 40.7649 26.7463C42.9132 26.7453 45.4806 24.5188 45.4806 22.6573C45.4806 21.9963 45.3919 21.9347 44.8523 22.2214C42.9937 23.2087 40.8026 21.9102 40.8026 19.8214C40.8026 19.1991 41.0654 18.4297 41.4052 18.057C42.0016 17.4027 41.9964 17.3959 40.9016 17.4085C40.2932 17.4156 39.3417 17.6171 38.7871 17.8567ZM2.70512 23.5392C2.88054 27.0287 3.9266 29.3607 6.48878 31.976C8.4818 34.01 8.4818 34.278 6.4891 33.0295C4.333 31.6784 2.61123 28.9795 1.76205 25.6183L1.35467 24.0061L1.32706 25.5039C1.29035 27.5011 2.36077 30.8349 3.65794 32.7612C6.3179 36.7118 12.1583 38.3357 16.3626 36.2939C17.2904 35.8435 18.4541 35.0557 18.9485 34.5437L19.8471 33.6125L17.3141 33.4383C13.8609 33.2013 11.4036 32.4294 9.0175 30.8326C6.55277 29.183 5.08765 27.1951 3.65924 23.5618L2.5664 20.7816L2.70512 23.5392ZM51.3735 22.2327C49.1746 29.4574 44.9286 32.8502 37.3769 33.4171L34.6338 33.6231L35.915 34.7284C37.6209 36.1995 38.727 36.7415 40.6369 37.041C43.7763 37.5337 47.1153 36.5567 49.553 34.4321C51.5314 32.708 53.3003 28.4843 53.2444 25.6183L53.2191 24.3286L52.7997 25.8399C51.8693 29.1927 50.2183 31.6945 48.0317 33.0646C46.1985 34.2132 46.1845 34.0268 47.9635 32.1479C48.8448 31.2167 49.8763 29.9472 50.2557 29.3265C51.3173 27.5898 52.0229 24.7513 51.9135 22.657L51.8154 20.7816L51.3735 22.2327ZM24.5722 23.7643C24.4838 24.0748 24.0206 25.7244 23.5433 27.4308L22.6753 30.5331L24.3155 32.5532C25.2173 33.6644 26.2111 35.2792 26.5236 36.1417C27.0457 37.5824 27.6132 38.2138 27.6132 37.3538C27.6132 36.629 29.3246 33.6315 30.5984 32.126L31.9124 30.5721L31.0389 27.4505C30.5587 25.7335 30.0929 24.0748 30.0045 23.7643C29.9002 23.3996 29.5224 23.2 28.9351 23.2C28.1005 23.2 28.0095 23.3219 27.8198 24.6961C27.5037 26.9855 27.5719 28.6248 28.0128 29.3255C28.3438 29.8514 28.3159 30.0572 27.8503 30.5189C27.3176 31.048 27.2591 31.048 26.7263 30.5189C26.2465 30.043 26.2264 29.8618 26.5899 29.2843C26.9047 28.7838 26.9563 27.9032 26.7887 25.9037C26.5623 23.2074 26.5594 23.2 25.6475 23.2C25.0546 23.2 24.6768 23.3983 24.5722 23.7643ZM18.6084 36.7205C15.5235 38.7349 11.8337 39.2205 8.20502 38.089C5.67597 37.3006 5.91182 37.8094 8.64585 39.0399C11.5703 40.3561 13.8202 40.3219 16.579 38.9193C17.7127 38.3431 18.9969 37.3996 19.4325 36.8234C20.3746 35.5771 20.362 35.5755 18.6084 36.7205ZM34.7189 36.3397C35.7029 38.1516 39.2413 39.9592 41.8135 39.964C43.6341 39.9676 46.4386 39.0599 47.7546 38.0416C48.5466 37.4286 48.5148 37.4293 46.4551 38.0671C42.7179 39.225 39.1809 38.7826 35.967 36.7557C34.8599 36.0576 34.5006 35.9376 34.7189 36.3397Z" fill="white"/>
<path d="M82.9534 24.6133C82.9534 18.0533 73.4335 20.1333 73.4335 16.4C73.4335 14.88 74.5238 14.16 75.9864 14.2133C77.5819 14.24 78.5658 15.2 78.6456 16.4267H82.7407C82.5014 13.0667 79.8954 11.12 76.0927 11.12C72.2635 11.12 69.5511 13.1467 69.5511 16.5067C69.5245 23.2533 79.0976 20.8267 79.0976 24.8533C79.0976 26.1867 78.0605 27.12 76.3055 27.12C74.577 27.12 73.5931 26.1333 73.4867 24.64H69.4979C69.5511 28.16 72.5294 30.1867 76.3852 30.1867C80.6133 30.1867 82.9534 27.5467 82.9534 24.6133Z" fill="white"/>
<path d="M85.2237 22.6133C85.2237 27.2533 88.2552 30.24 92.5099 30.24C96.1796 30.24 98.6526 28.16 99.4504 25.0133H95.435C94.983 26.3467 94.0257 27.04 92.4833 27.04C90.4092 27.04 89.0264 25.4933 89.0264 22.6133C89.0264 19.7333 90.4092 18.16 92.4833 18.16C94.0257 18.16 95.0096 18.96 95.435 20.2133H99.4504C98.6526 16.9067 96.1796 14.9867 92.5099 14.9867C88.2552 14.9867 85.2237 17.9733 85.2237 22.6133Z" fill="white"/>
<path d="M105.901 22.64C105.901 19.7867 107.23 18.9333 109.437 18.9333H110.421V15.0133C108.374 15.0133 106.831 16 105.901 17.52V15.2267H102.178V30H105.901V22.64Z" fill="white"/>
<path d="M119.204 25.5467L115.402 15.2267H111.227L117.13 29.6267L113.939 36.9867H117.901L127.022 15.2267H123.06L119.204 25.5467Z" fill="white"/>
<path d="M132.752 17.3867V10.2667H129.029V30H132.752V27.8933C133.656 29.1733 135.305 30.24 137.619 30.24C141.395 30.24 144.346 27.1733 144.346 22.56C144.346 17.9467 141.395 14.9867 137.619 14.9867C135.385 14.9867 133.656 16.0267 132.752 17.3867ZM140.544 22.56C140.544 25.36 138.656 26.96 136.635 26.96C134.64 26.96 132.752 25.4133 132.752 22.6133C132.752 19.8133 134.64 18.2667 136.635 18.2667C138.656 18.2667 140.544 19.76 140.544 22.56Z" fill="white"/>
<path d="M153.38 18.0533C155.295 18.0533 156.837 19.28 156.891 21.2267H149.897C150.189 19.2 151.599 18.0533 153.38 18.0533ZM160.374 25.36H156.359C155.88 26.3467 155.003 27.1467 153.407 27.1467C151.546 27.1467 150.056 25.92 149.87 23.7333H160.64C160.72 23.2533 160.746 22.7733 160.746 22.2933C160.746 17.8933 157.742 14.9867 153.487 14.9867C149.126 14.9867 146.094 17.9467 146.094 22.6133C146.094 27.2533 149.206 30.24 153.487 30.24C157.13 30.24 159.576 28.08 160.374 25.36Z" fill="white"/>
<path d="M163.517 22.0533H174.792V18.9067H163.517V22.0533Z" fill="white"/>
<path d="M178.967 30H182.69V11.3867H178.967V30Z" fill="white"/>
<path d="M186.953 25.4133C186.953 28.8 188.841 30 191.66 30H194V26.8533H192.272C191.101 26.8533 190.703 26.4267 190.703 25.44V18.2933H194V15.2267H190.703V11.5733H186.953V15.2267H185.198V18.2933H186.953V25.4133Z" fill="white"/>
</svg>
